<svg width="20" height="20" viewBox="0 0 20 20" fill="none" xmlns="http://www.w3.org/2000/svg">
<path d="M14.2786 1.72705H1.44429C1.06366 1.72852 0.698884 1.8796 0.428675 2.14767C0.158466 2.41574 0.00449714 2.77931 0 3.15991L0 3.74134C0.000756783 4.12389 0.153256 4.49052 0.42403 4.76075C0.694804 5.03099 1.06173 5.18277 1.44429 5.18277H14.2786C14.6611 5.18277 15.0281 5.03099 15.2988 4.76075C15.5696 4.49052 15.7221 4.12389 15.7229 3.74134V3.15848C15.718 2.77813 15.5639 2.41493 15.2937 2.14716C15.0235 1.8794 14.6589 1.72852 14.2786 1.72705Z" fill="#403B36"/>
<path d="M18.5571 8.27124H1.44429C1.06378 8.27308 0.69921 8.42428 0.42908 8.69227C0.15895 8.96026 0.00486431 9.32362 0 9.7041L0 10.2855C0.000378636 10.6683 0.152711 11.0353 0.423526 11.3059C0.694341 11.5764 1.06148 11.7284 1.44429 11.7284H18.5571C18.7466 11.7284 18.9342 11.6911 19.1093 11.6186C19.2844 11.546 19.4434 11.4398 19.5774 11.3058C19.7114 11.1718 19.8177 11.0127 19.8902 10.8377C19.9627 10.6626 20 10.475 20 10.2855V9.70267C19.9955 9.32245 19.8417 8.95924 19.5717 8.69144C19.3018 8.42364 18.9374 8.27271 18.5571 8.27124Z" fill="#403B36"/>
<path d="M9.28571 14.8171H1.44429C1.0644 14.8186 0.70025 14.9691 0.430161 15.2362C0.160071 15.5034 0.00561138 15.8659 0 16.2457L0 16.8257C0.000378636 17.2085 0.152711 17.5755 0.423526 17.8461C0.694341 18.1166 1.06148 18.2686 1.44429 18.2686H9.28571C9.66852 18.2686 10.0357 18.1166 10.3065 17.8461C10.5773 17.5755 10.7296 17.2085 10.73 16.8257V16.2443C10.724 15.8647 10.5694 15.5026 10.2993 15.2357C10.0293 14.9689 9.66536 14.8186 9.28571 14.8171Z" fill="#403B36"/>
</svg>
