<svg width="20" height="20" viewBox="0 0 20 20" fill="none" xmlns="http://www.w3.org/2000/svg">
<g clip-path="url(#clip0_3_742)">
<path fill-rule="evenodd" clip-rule="evenodd" d="M13.6129 2.39583C12.5678 1.34967 11.2523 0.614894 9.81347 0.273678C8.37464 -0.0675383 6.86925 -0.00173585 5.46568 0.463725C4.06212 0.929186 2.81572 1.77595 1.8659 2.90931C0.916076 4.04266 0.300291 5.41792 0.0874152 6.88125C-0.12546 8.34458 0.0729695 9.83828 0.66051 11.1953C1.24805 12.5523 2.20153 13.7191 3.41431 14.5651C4.62708 15.4112 6.05133 15.9032 7.52774 15.9861C9.00415 16.0689 10.4745 15.7394 11.7743 15.0344L16.5501 19.5715C16.7992 19.8079 17.1306 19.9377 17.474 19.9335C17.8173 19.9292 18.1455 19.7911 18.3886 19.5487L19.6143 18.323C19.8597 18.0762 19.9973 17.7424 19.9973 17.3944C19.9973 17.0464 19.8597 16.7126 19.6143 16.4658L14.9801 11.823C15.7985 10.3141 16.1076 8.58124 15.8612 6.88248C15.6149 5.18372 14.8263 3.61001 13.6129 2.39583ZM11.2458 11.2944C10.5999 11.9406 9.777 12.3807 8.88102 12.5591C7.98504 12.7375 7.05628 12.6461 6.21221 12.2966C5.36814 11.9471 4.64668 11.3552 4.13908 10.5956C3.63149 9.83601 3.36055 8.94297 3.36055 8.0294C3.36055 7.11583 3.63149 6.22279 4.13908 5.46322C4.64668 4.70365 5.36814 4.11167 6.21221 3.76217C7.05628 3.41267 7.98504 3.32135 8.88102 3.49974C9.777 3.67814 10.5999 4.11825 11.2458 4.7644C12.1093 5.63159 12.5942 6.80558 12.5942 8.0294C12.5942 9.25323 12.1093 10.4272 11.2458 11.2944Z" fill="#403B36"/>
</g>
<defs>
<clipPath id="clip0_3_742">
<rect width="20" height="20" fill="white"/>
</clipPath>
</defs>
</svg>
